<svg width="24" height="24" viewBox="0 0 24 24" fill="none" xmlns="http://www.w3.org/2000/svg">
<mask id="mask0" mask-type="alpha" maskUnits="userSpaceOnUse" x="0" y="0" width="24" height="24">
<path fill-rule="evenodd" clip-rule="evenodd" d="M12.0053 5.89335C8.61332 5.89335 5.87732 8.62935 5.87732 12.0213C5.87732 15.4133 8.61332 18.1493 12.0053 18.1493C15.3973 18.1493 18.1333 15.4133 18.1333 12.0213C18.1333 8.62935 15.3973 5.89335 12.0053 5.89335ZM12.0053 16.0053C9.81332 16.0053 8.02132 14.2187 8.02132 12.0213C8.02132 9.82401 9.80798 8.03735 12.0053 8.03735C14.2026 8.03735 15.9893 9.82401 15.9893 12.0213C15.9893 14.2187 14.1973 16.0053 12.0053 16.0053V16.0053ZM19.8133 5.64268C19.8133 6.43735 19.1733 7.07201 18.384 7.07201C17.5893 7.07201 16.9546 6.43201 16.9546 5.64268C16.9546 4.85335 17.5946 4.21335 18.384 4.21335C19.1733 4.21335 19.8133 4.85335 19.8133 5.64268ZM23.872 7.09335C23.7813 5.17868 23.344 3.48268 21.9413 2.08535C20.544 0.688012 18.848 0.250679 16.9333 0.154679C14.96 0.0426787 9.04532 0.0426787 7.07198 0.154679C5.16265 0.245345 3.46665 0.682679 2.06398 2.08001C0.661316 3.47735 0.229316 5.17335 0.133316 7.08801C0.0213164 9.06135 0.0213164 14.976 0.133316 16.9493C0.223983 18.864 0.661316 20.56 2.06398 21.9573C3.46665 23.3547 5.15732 23.792 7.07198 23.888C9.04532 24 14.96 24 16.9333 23.888C18.848 23.7973 20.544 23.36 21.9413 21.9573C23.3386 20.56 23.776 18.864 23.872 16.9493C23.984 14.976 23.984 9.06668 23.872 7.09335ZM21.3226 19.0667C20.9066 20.112 20.1013 20.9173 19.0507 21.3387C17.4773 21.9627 13.744 21.8187 12.0053 21.8187C10.2666 21.8187 6.52798 21.9573 4.95998 21.3387C3.91465 20.9227 3.10932 20.1173 2.68798 19.0667C2.06398 17.4933 2.20798 13.76 2.20798 12.0213C2.20798 10.2827 2.06932 6.54401 2.68798 4.97601C3.10398 3.93068 3.90932 3.12535 4.95998 2.70401C6.53332 2.08001 10.2666 2.22401 12.0053 2.22401C13.744 2.22401 17.4827 2.08535 19.0507 2.70401C20.096 3.12001 20.9013 3.92535 21.3226 4.97601C21.9466 6.54935 21.8026 10.2827 21.8026 12.0213C21.8026 13.76 21.9466 17.4987 21.3226 19.0667Z" fill="white"/>
</mask>
<g mask="url(#mask0)">
<rect width="24" height="24" fill="#ffffff"/>
</g>
</svg>
