<?xml version="1.0" encoding="UTF-8"?>
<svg width="60px" height="60px" viewBox="0 0 60 60" version="1.1" xmlns="http://www.w3.org/2000/svg" xmlns:xlink="http://www.w3.org/1999/xlink">
    <!-- Generator: Sketch 56.3 (81716) - https://sketch.com -->
    <title>Discord</title>
    <desc>Created with Sketch.</desc>
    <defs>
        <path d="M0,30 C0,13.4314567 13.4314567,0 30,0 C46.5685433,0 60,13.4314567 60,30 C60,46.5685433 46.5685433,60 30,60 C13.4314567,60 0,46.5685433 0,30 Z" id="path-1"></path>
    </defs>
    <g id="Symbols" stroke="none" stroke-width="1" fill="none" fill-rule="evenodd">
        <g id="Atoms/Icon/Company/Discord">
            <g id="Discord">
                <g>
                    <mask id="mask-2" fill="white">
                        <use xlink:href="#path-1"></use>
                    </mask>
                    <use id="back" fill="#FFFFFF" xlink:href="#path-1"></use>
                    <g id="Discord-Logo-Color" mask="url(#mask-2)" fill="#7289DA" fill-rule="nonzero">
                        <g transform="translate(15.000000, 13.000000)" id="Shape">
                            <path d="M12.7926186,15 C11.7908612,15 11,15.9009009 11,17 C11,18.0990991 11.8084359,19 12.7926186,19 C13.7943761,19 14.5852373,18.0990991 14.5852373,17 C14.602812,15.9009009 13.7943761,15 12.7926186,15 Z M19.2073814,15 C18.2056239,15 17.4147627,15.9009009 17.4147627,17 C17.4147627,18.0990991 18.2231986,19 19.2073814,19 C20.2091388,19 21,18.0990991 21,17 C21,15.9009009 20.2091388,15 19.2073814,15 Z"></path>
                            <path d="M27.3685714,0 L3.63142857,0 C1.62971429,0 0,1.61 0,3.605 L0,27.265 C0,29.26 1.62971429,30.87 3.63142857,30.87 L23.7194286,30.87 L22.7805714,27.6325 L25.048,29.715 L27.1914286,31.675 L31,35 L31,3.605 C31,1.61 29.3702857,0 27.3685714,0 Z M20.5308571,22.855 C20.5308571,22.855 19.8931429,22.1025 19.3617143,21.4375 C21.6822857,20.79 22.568,19.355 22.568,19.355 C21.8417143,19.8275 21.1508571,20.16 20.5308571,20.3875 C19.6451429,20.755 18.7948571,21 17.9622857,21.14 C16.2617143,21.455 14.7028571,21.3675 13.3742857,21.1225 C12.3645714,20.93 11.4965714,20.65 10.7702857,20.37 C10.3628571,20.2125 9.92,20.02 9.47714286,19.775 C9.424,19.74 9.37085714,19.7225 9.31771429,19.6875 C9.28228571,19.67 9.26457143,19.6525 9.24685714,19.635 C8.928,19.46 8.75085714,19.3375 8.75085714,19.3375 C8.75085714,19.3375 9.60114286,20.7375 11.8508571,21.4025 C11.3194286,22.0675 10.664,22.855 10.664,22.855 C6.74914286,22.7325 5.26114286,20.195 5.26114286,20.195 C5.26114286,14.56 7.812,9.9925 7.812,9.9925 C10.3628571,8.1025 12.7897143,8.155 12.7897143,8.155 L12.9668571,8.365 C9.77828571,9.275 8.308,10.6575 8.308,10.6575 C8.308,10.6575 8.69771429,10.4475 9.35314286,10.15 C11.2485714,9.3275 12.7542857,9.1 13.3742857,9.0475 C13.4805714,9.03 13.5691429,9.0125 13.6754286,9.0125 C14.756,8.8725 15.9782857,8.8375 17.2537143,8.9775 C18.9365714,9.17 20.7434286,9.66 22.5857143,10.6575 C22.5857143,10.6575 21.1862857,9.345 18.1748571,8.435 L18.4228571,8.155 C18.4228571,8.155 20.8497143,8.1025 23.4005714,9.9925 C23.4005714,9.9925 25.9514286,14.56 25.9514286,20.195 C25.9514286,20.195 24.4457143,22.7325 20.5308571,22.855 L20.5308571,22.855 Z"></path>
                        </g>
                    </g>
                </g>
            </g>
        </g>
    </g>
</svg>