<svg width="24" height="24" viewBox="0 0 24 24" fill="none" xmlns="http://www.w3.org/2000/svg">
<mask id="mask0" mask-type="alpha" maskUnits="userSpaceOnUse" x="0" y="0" width="24" height="24">
<path fill-rule="evenodd" clip-rule="evenodd" d="M24 1.32321V22.6714C24 23.4054 23.4054 23.9946 22.6768 23.9946H16.5589V14.7054H19.6768L20.1429 11.0839H16.5536V8.76964C16.5536 7.71964 16.8429 7.00714 18.3482 7.00714H20.2661V3.76607C19.9339 3.72321 18.7982 3.62143 17.4696 3.62143C14.7054 3.62143 12.8089 5.30893 12.8089 8.41071V11.0839H9.68036V14.7054H12.8089V24H1.32321C0.594643 24 0 23.4054 0 22.6768V1.32321C0 0.594643 0.594643 0 1.32321 0H22.6714C23.4054 0 24 0.594643 24 1.32321Z" fill="white"/>
</mask>
<g mask="url(#mask0)">
<rect width="24" height="24" fill="#000000"/>
</g>
</svg>
