<svg width="25" height="21" viewBox="0 0 25 21" fill="none" xmlns="http://www.w3.org/2000/svg">
<path fill-rule="evenodd" clip-rule="evenodd" d="M25 2.15686C24.3137 3.23529 23.4314 4.11765 22.451 4.80392C22.451 5 22.451 5.19608 22.451 5.4902C22.451 6.86275 22.2549 8.23529 21.8627 9.60784C21.4706 10.9804 20.8824 12.2549 20 13.5294C19.2157 14.8039 18.2353 15.8824 17.0588 16.8627C15.8824 17.8431 14.6078 18.6275 12.9412 19.2157C11.3725 19.8039 9.60784 20.098 7.84314 20.098C5 20.098 2.35294 19.3137 0 17.8431C0.392157 17.8431 0.784314 17.9412 1.27451 17.9412C3.62745 17.9412 5.78431 17.2549 7.64706 15.7843C6.56863 15.7843 5.58824 15.3922 4.70588 14.8039C3.82353 14.1176 3.23529 13.3333 2.94118 12.2549C3.33333 12.3529 3.62745 12.3529 3.92157 12.3529C4.41176 12.3529 4.80392 12.2549 5.29412 12.1569C4.11765 11.9608 3.13725 11.3725 2.35294 10.3922C1.56863 9.41176 1.17647 8.33333 1.17647 7.15686V7.05882C1.86275 7.45098 2.64706 7.64706 3.52941 7.7451C2.84314 7.2549 2.2549 6.66667 1.86275 5.88235C1.47059 5.09804 1.27451 4.31373 1.27451 3.43137C1.27451 2.54902 1.47059 1.66667 1.96078 0.882353C3.23529 2.45098 4.80392 3.72549 6.66667 4.70588C8.52941 5.68627 10.4902 6.17647 12.549 6.27451C12.451 5.88235 12.451 5.4902 12.451 5.09804C12.451 3.72549 12.9412 2.45098 13.9216 1.47059C14.902 0.490196 16.0784 0 17.549 0C19.0196 0 20.2941 0.588235 21.2745 1.56863C22.451 1.37255 23.5294 0.980392 24.5098 0.294118C24.1176 1.47059 23.3333 2.45098 22.2549 3.13725C23.0392 2.84314 24.0196 2.54902 25 2.15686Z" fill="#171717"/>
<mask id="mask0" mask-type="alpha" maskUnits="userSpaceOnUse" x="0" y="0" width="25" height="21">
<path fill-rule="evenodd" clip-rule="evenodd" d="M25 2.15686C24.3137 3.23529 23.4314 4.11765 22.451 4.80392C22.451 5 22.451 5.19608 22.451 5.4902C22.451 6.86275 22.2549 8.23529 21.8627 9.60784C21.4706 10.9804 20.8824 12.2549 20 13.5294C19.2157 14.8039 18.2353 15.8824 17.0588 16.8627C15.8824 17.8431 14.6078 18.6275 12.9412 19.2157C11.3725 19.8039 9.60784 20.098 7.84314 20.098C5 20.098 2.35294 19.3137 0 17.8431C0.392157 17.8431 0.784314 17.9412 1.27451 17.9412C3.62745 17.9412 5.78431 17.2549 7.64706 15.7843C6.56863 15.7843 5.58824 15.3922 4.70588 14.8039C3.82353 14.1176 3.23529 13.3333 2.94118 12.2549C3.33333 12.3529 3.62745 12.3529 3.92157 12.3529C4.41176 12.3529 4.80392 12.2549 5.29412 12.1569C4.11765 11.9608 3.13725 11.3725 2.35294 10.3922C1.56863 9.41176 1.17647 8.33333 1.17647 7.15686V7.05882C1.86275 7.45098 2.64706 7.64706 3.52941 7.7451C2.84314 7.2549 2.2549 6.66667 1.86275 5.88235C1.47059 5.09804 1.27451 4.31373 1.27451 3.43137C1.27451 2.54902 1.47059 1.66667 1.96078 0.882353C3.23529 2.45098 4.80392 3.72549 6.66667 4.70588C8.52941 5.68627 10.4902 6.17647 12.549 6.27451C12.451 5.88235 12.451 5.4902 12.451 5.09804C12.451 3.72549 12.9412 2.45098 13.9216 1.47059C14.902 0.490196 16.0784 0 17.549 0C19.0196 0 20.2941 0.588235 21.2745 1.56863C22.451 1.37255 23.5294 0.980392 24.5098 0.294118C24.1176 1.47059 23.3333 2.45098 22.2549 3.13725C23.0392 2.84314 24.0196 2.54902 25 2.15686Z" fill="white"/>
</mask>
<g mask="url(#mask0)">
<path fill-rule="evenodd" clip-rule="evenodd" d="M-5 -3H30V24H-5V-3Z" fill="#2491FF"/>
</g>
</svg>
