<?xml version="1.0" encoding="UTF-8"?>
<svg width="60px" height="60px" viewBox="0 0 60 60" version="1.1" xmlns="http://www.w3.org/2000/svg" xmlns:xlink="http://www.w3.org/1999/xlink">
    <!-- Generator: Sketch 56.3 (81716) - https://sketch.com -->
    <title>Github</title>
    <desc>Created with Sketch.</desc>
    <g id="Symbols" stroke="none" stroke-width="1" fill="none" fill-rule="evenodd">
        <g id="Atoms/Icon/Company/Github" fill="#ffffff">
            <g id="Github">
                <g>
                    <path d="M30.0002484,0 C13.4337404,0 0,13.7711844 0,30.7595164 C0,44.3498764 8.59598427,55.8798561 20.5160008,59.9471334 C22.0153177,60.2318682 22.5657628,59.2798656 22.5657628,58.4674289 C22.5657628,57.7339437 22.5379425,55.3108957 22.5250259,52.7406414 C14.1789278,54.6013507 12.4178017,49.1114178 12.4178017,49.1114178 C11.0531153,45.5560521 9.08681432,44.6106712 9.08681432,44.6106712 C6.3648934,42.7015722 9.29198924,42.7407933 9.29198924,42.7407933 C12.3045332,42.9577827 13.8907887,45.9105699 13.8907887,45.9105699 C16.566508,50.613025 20.9089629,49.2535305 22.6209066,48.4675808 C22.8901677,46.4795303 23.6676465,45.1225827 24.5256055,44.3544607 C17.8621403,43.5766608 10.8573794,40.9391703 10.8573794,29.1529801 C10.8573794,25.7947386 12.0293107,23.0507908 13.9484165,20.8966875 C13.6369282,20.1219437 12.61006,16.9934256 14.2390395,12.7565299 C14.2390395,12.7565299 16.7582695,11.929831 22.491244,15.9094975 C24.884289,15.2279675 27.4507141,14.8861838 30.0002484,14.8744684 C32.5497827,14.8861838 35.118195,15.2279675 37.515711,15.9094975 C43.2417305,11.929831 45.7574829,12.7565299 45.7574829,12.7565299 C47.3904368,16.9934256 46.3630718,20.1219437 46.0515835,20.8966875 C47.9751604,23.0507908 49.139143,25.7947386 49.139143,29.1529801 C49.139143,40.9671853 42.1209687,43.5685109 35.4406127,44.3300112 C36.5166632,45.2845607 37.4754709,47.156476 37.4754709,50.0262368 C37.4754709,54.1419037 37.4406955,57.4543025 37.4406955,58.4674289 C37.4406955,59.285978 37.9807079,60.2451117 39.5013869,59.9430585 C51.4149451,55.8711969 60,44.3452921 60,30.7595164 C60,13.7711844 46.5682467,0 30.0002484,0" id="Fill-4"></path>
                    <path d="M11.4510744,43.9528814 C11.385124,44.1041839 11.1510744,44.1495747 10.9378512,44.0456803 C10.7206612,43.946325 10.5986777,43.7400492 10.6690909,43.5882423 C10.7335537,43.4324007 10.9680992,43.3890273 11.1847934,43.493426 C11.4024793,43.5927814 11.5264463,43.8010745 11.4510744,43.9528814" id="Fill-5"></path>
                    <path d="M12.6639669,45.3287258 C12.521157,45.463385 12.2419835,45.4008466 12.052562,45.1880144 C11.8566942,44.9756865 11.82,44.6917421 11.9647934,44.5550655 C12.1120661,44.4204062 12.3828099,44.483449 12.5791736,44.6957768 C12.7750413,44.9106264 12.8132231,45.1925535 12.6639669,45.3287258" id="Fill-6"></path>
                    <path d="M13.8446281,47.0828265 C13.661157,47.2124423 13.361157,47.0908959 13.1757025,46.8200644 C12.9922314,46.5492329 12.9922314,46.2244368 13.1796694,46.0943166 C13.3656198,45.9641964 13.661157,46.0812037 13.8490909,46.3500179 C14.0320661,46.6253885 14.0320661,46.9501846 13.8446281,47.0828265" id="Fill-7"></path>
                    <path d="M15.4621488,48.7774148 C15.2980165,48.9614996 14.9484298,48.9120741 14.692562,48.6609119 C14.4307438,48.4152974 14.3578512,48.0667973 14.5224793,47.8827125 C14.688595,47.6981234 15.0401653,47.7500706 15.2980165,47.9992155 C15.5578512,48.2443256 15.6371901,48.5953474 15.4621488,48.7774148" id="Fill-8"></path>
                    <path d="M17.6935537,49.7613856 C17.621157,49.9999393 17.2844628,50.1083728 16.9452893,50.0070001 C16.6066116,49.9026013 16.3849587,49.623196 16.4533884,49.3821206 C16.5238017,49.1420539 16.8619835,49.0290814 17.2036364,49.1375149 C17.5418182,49.2414093 17.7639669,49.5187972 17.6935537,49.7613856" id="Fill-9"></path>
                    <path d="M20.1441322,49.9439574 C20.152562,50.1951196 19.8649587,50.4034127 19.5089256,50.4079518 C19.1509091,50.4160213 18.8613223,50.2127715 18.8573554,49.9656441 C18.8573554,49.7119601 19.1385124,49.5056844 19.4965289,49.4996323 C19.852562,49.4925715 20.1441322,49.6943082 20.1441322,49.9439574" id="Fill-10"></path>
                    <path d="M22.4246281,49.5490577 C22.4672727,49.7941678 22.2198347,50.0458344 21.866281,50.1129118 C21.5186777,50.1774676 21.1968595,50.0261651 21.1527273,49.7830723 C21.1095868,49.5319101 21.3614876,49.2802436 21.708595,49.2151835 C22.0626446,49.1526451 22.3795041,49.2999129 22.4246281,49.5490577" id="Fill-11"></path>
                </g>
            </g>
        </g>
    </g>
</svg>
