<?xml version="1.0" standalone="no"?>
<!DOCTYPE svg PUBLIC "-//W3C//DTD SVG 20010904//EN"
 "http://www.w3.org/TR/2001/REC-SVG-20010904/DTD/svg10.dtd">
<svg version="1.0" xmlns="http://www.w3.org/2000/svg"
 width="512.000000pt" height="512.000000pt" viewBox="0 0 512.000000 512.000000"
 preserveAspectRatio="xMidYMid meet">
<metadata>
Created by potrace 1.11, written by Peter Selinger 2001-2013
</metadata>
<g transform="translate(0.000000,512.000000) scale(0.100000,-0.100000)"
fill="#000000" stroke="none">
<path d="M2255 5108 c-105 -12 -298 -51 -409 -83 -994 -288 -1724 -1155 -1835
-2177 -16 -143 -14 -463 4 -606 16 -130 33 -222 42 -222 2 0 214 206 469 457
506 500 513 505 593 483 39 -10 118 -85 739 -701 383 -379 699 -689 702 -689
3 0 319 310 702 689 621 616 700 691 739 701 80 22 87 17 593 -483 255 -251
467 -457 469 -457 9 0 26 92 42 222 18 143 20 463 4 606 -128 1181 -1080 2133
-2261 2261 -115 13 -479 12 -593 -1z m485 -1054 c170 -53 318 -198 374 -367
69 -207 21 -427 -129 -585 -117 -125 -257 -186 -425 -186 -168 0 -308 61 -425
186 -212 224 -214 563 -4 792 156 170 385 231 609 160z"/>
<path d="M613 2130 l-462 -460 40 -96 c298 -716 911 -1263 1655 -1479 117 -34
306 -71 426 -84 125 -14 451 -14 576 0 917 99 1724 705 2081 1563 l40 97 -460
457 c-254 251 -465 457 -470 457 -5 0 -316 -304 -691 -675 -374 -371 -693
-683 -707 -692 -17 -12 -45 -18 -81 -18 -36 0 -64 6 -81 18 -14 9 -333 321
-707 692 -375 371 -685 676 -689 677 -4 1 -216 -204 -470 -457z"/>
</g>
</svg>
