<svg width="13" height="25" viewBox="0 0 13 25" fill="none" xmlns="http://www.w3.org/2000/svg">
<path fill-rule="evenodd" clip-rule="evenodd" d="M12.8704 0.185185V4.16667H10.5556C9.72222 4.16667 9.16667 4.35185 8.7963 4.72222C8.51852 5.09259 8.33333 5.64815 8.33333 6.2963V9.16667H12.6852L12.1296 13.6111H8.33333V25H3.7963V13.6111H0V9.16667H3.7963V5.92593C3.7963 4.07407 4.35185 2.59259 5.37037 1.57407C6.38889 0.555555 7.77778 0 9.53704 0C10.9259 0 12.037 0.0925926 12.8704 0.185185Z" fill="#171717"/>
<mask id="mask0" mask-type="alpha" maskUnits="userSpaceOnUse" x="0" y="0" width="13" height="25">
<path fill-rule="evenodd" clip-rule="evenodd" d="M12.8704 0.185185V4.16667H10.5556C9.72222 4.16667 9.16667 4.35185 8.7963 4.72222C8.51852 5.09259 8.33333 5.64815 8.33333 6.2963V9.16667H12.6852L12.1296 13.6111H8.33333V25H3.7963V13.6111H0V9.16667H3.7963V5.92593C3.7963 4.07407 4.35185 2.59259 5.37037 1.57407C6.38889 0.555555 7.77778 0 9.53704 0C10.9259 0 12.037 0.0925926 12.8704 0.185185Z" fill="white"/>
</mask>
<g mask="url(#mask0)">
<path fill-rule="evenodd" clip-rule="evenodd" d="M-11 -2H21V28H-11V-2Z" fill="#ffffff"/>
</g>
</svg>
