<svg width="24" height="24" viewBox="0 0 24 24" fill="none" xmlns="http://www.w3.org/2000/svg">
<mask id="mask0" mask-type="alpha" maskUnits="userSpaceOnUse" x="0" y="0" width="24" height="24">
<path fill-rule="evenodd" clip-rule="evenodd" d="M4.53684 19.2045C4.58674 19.4631 4.43249 19.7081 4.17389 19.7626C3.9289 19.8125 3.67937 19.6582 3.62947 19.3996C3.57956 19.1546 3.73381 18.896 3.97881 18.8416C4.2238 18.7871 4.4824 18.9459 4.53684 19.2045ZM11.0291 22.4439C10.7433 22.6526 10.6661 23.0518 10.8612 23.3512C11.0699 23.6507 11.4692 23.7278 11.7686 23.5191C12.0544 23.3104 12.1315 22.9112 11.9229 22.6117C11.7323 22.3168 11.3285 22.2352 11.0291 22.4439V22.4439ZM7.12739 1.46994C7.41321 1.40643 7.59468 1.1206 7.53117 0.834781C7.48126 0.535348 7.19544 0.353874 6.90962 0.421927C6.6238 0.485443 6.44232 0.771265 6.49676 1.05709C6.56028 1.35652 6.84157 1.53799 7.12739 1.46994V1.46994ZM1.60603 10.6752C1.15234 10.3622 0.53079 10.4802 0.217747 10.9474C-0.0952966 11.4011 0.0226619 12.0363 0.476348 12.3493C0.930034 12.6715 1.55158 12.558 1.86463 12.0907C2.17767 11.6189 2.05971 10.9974 1.60603 10.6752ZM13.9463 2.92174C14.4272 2.63592 14.5678 2.01437 14.2956 1.54707C14.0098 1.06616 13.4019 0.911908 12.9346 1.19773C12.4673 1.48355 12.313 2.1051 12.5988 2.58601C12.8711 3.05331 13.479 3.20756 13.9463 2.92174ZM5.27635 5.55312C5.62569 5.30813 5.70281 4.82722 5.47143 4.47788C5.24005 4.12854 4.75915 4.05142 4.42342 4.2828C4.07408 4.52779 3.99695 5.00869 4.22833 5.35803C4.45971 5.71191 4.93608 5.78903 5.27635 5.55312ZM22.1671 12.6306C21.8314 12.7077 21.6091 13.0435 21.6862 13.3974C21.7497 13.7331 22.09 13.9554 22.4257 13.8783C22.7614 13.8147 22.9837 13.4745 22.9066 13.1251C22.8385 12.7894 22.5028 12.5671 22.1671 12.6306ZM23.9682 10.0537C23.9183 9.79508 23.6688 9.64083 23.4238 9.69074C23.1652 9.74064 23.0109 10.0038 23.0608 10.2624C23.1108 10.5074 23.3603 10.6752 23.6189 10.6253C23.8639 10.5573 24.0317 10.3123 23.9682 10.0537ZM20.3251 6.71002C19.9349 6.98223 19.8442 7.51304 20.1028 7.90321C20.3614 8.29338 20.8922 8.38412 21.2824 8.12552C21.659 7.85331 21.7497 7.32249 21.4911 6.93232C21.2325 6.53762 20.7017 6.43781 20.3251 6.71002V6.71002ZM20.0393 13.0344C21.2325 14.9898 20.7244 17.5713 18.8461 18.8915C18.0567 19.4495 17.1629 19.6945 16.2646 19.6673C15.7202 21.8042 13.116 22.5981 11.4964 21.1463C11.4465 21.1871 11.3784 21.2234 11.3285 21.2779C9.55461 22.5074 7.141 22.0673 5.91151 20.2662C5.47143 19.6174 5.24913 18.8779 5.22644 18.1384C2.25933 17.6439 1.14327 13.8737 3.36179 11.8004C2.07786 9.67259 3.38901 6.92779 5.78448 6.58752C6.92323 3.58412 10.6661 2.15954 13.2068 4.12854C16.2646 3.11682 19.3905 5.46238 19.1455 8.71531C21.0102 9.28696 21.541 11.7505 20.0393 13.0344ZM16.8635 16.4053C16.7229 15.4707 15.0079 16.1966 14.9081 15.1758C14.7675 13.724 16.8907 10.589 16.7229 9.36862C16.5686 8.27977 15.8427 8.04839 15.2075 8.03478C14.5996 8.02117 14.4408 8.12552 14.2367 8.24348C14.1051 8.3206 13.9372 8.46578 13.7058 8.22987C13.42 7.95765 13.2022 7.69905 12.8257 7.64461C12.2677 7.55387 12.0227 7.73535 11.6189 8.08469C11.4646 8.21626 11.0745 8.66994 10.7115 8.49754C10.5573 8.42041 10.0128 8.1482 9.62266 7.98034C8.88315 7.65822 7.80792 8.18903 7.41775 8.88771C6.83249 9.92665 5.69374 14.0189 5.52588 14.5633C5.13571 15.7701 6.02039 16.7682 7.19998 16.7002C7.70357 16.673 8.03022 16.4915 8.35234 15.9108C8.53381 15.575 10.2442 11.0246 10.3758 10.8023C10.4665 10.648 10.7796 10.4393 11.0382 10.5709C11.2968 10.7115 11.3512 10.9974 11.3104 11.256C11.2605 11.696 10.0401 14.4726 9.99922 14.7811C9.84497 15.82 11.2196 15.9879 11.7505 14.9626C11.9183 14.6405 13.8238 10.7614 13.9917 10.5028C14.1867 10.217 14.3274 10.1263 14.5225 10.1399C14.6631 10.1399 14.899 10.1807 14.8446 10.6344C14.7811 11.0609 13.2522 13.9146 13.0798 14.6132C12.8711 15.5478 13.3792 16.4915 14.2094 16.9089C14.7266 17.1675 17.045 17.6212 16.8635 16.4053V16.4053ZM17.1221 20.5928C16.6548 20.9285 16.5368 21.5909 16.8635 22.0718C17.1856 22.5527 17.8344 22.6662 18.3153 22.344C18.7962 22.0083 18.9096 21.3459 18.5875 20.865C18.2518 20.3841 17.603 20.2526 17.1221 20.5928Z" fill="white"/>
</mask>
<g mask="url(#mask0)">
<rect width="24" height="24" fill="#ffffff"/>
</g>
</svg>
