<svg width="655" height="85" viewBox="0 0 655 85" fill="none" xmlns="http://www.w3.org/2000/svg">
<path d="M87.3331 11.8408L61.4715 73H41.2016L15.34 11.8408H37.532L52.1229 47.5752L67.0632 11.8408H87.3331ZM126.468 74.3979C119.886 74.3979 113.974 73.0291 108.732 70.2915C103.49 67.5539 99.3836 63.7679 96.413 58.9334C93.4424 54.0406 91.9571 48.5363 91.9571 42.4204C91.9571 36.3045 93.4424 30.8293 96.413 25.9948C99.3836 21.102 103.49 17.2869 108.732 14.5493C113.974 11.8117 119.886 10.4429 126.468 10.4429C133.05 10.4429 138.962 11.8117 144.205 14.5493C149.447 17.2869 153.553 21.102 156.524 25.9948C159.494 30.8293 160.98 36.3045 160.98 42.4204C160.98 48.5363 159.494 54.0406 156.524 58.9334C153.553 63.7679 149.447 67.5539 144.205 70.2915C138.962 73.0291 133.05 74.3979 126.468 74.3979ZM126.468 57.7102C129.031 57.7102 131.332 57.0986 133.371 55.8754C135.467 54.594 137.128 52.8175 138.351 50.5458C139.574 48.216 140.185 45.5075 140.185 42.4204C140.185 39.3333 139.574 36.654 138.351 34.3823C137.128 32.0525 135.467 30.2759 133.371 29.0527C131.332 27.7713 129.031 27.1306 126.468 27.1306C123.905 27.1306 121.576 27.7713 119.479 29.0527C117.44 30.2759 115.809 32.0525 114.586 34.3823C113.363 36.654 112.751 39.3333 112.751 42.4204C112.751 45.5075 113.363 48.216 114.586 50.5458C115.809 52.8175 117.44 54.594 119.479 55.8754C121.576 57.0986 123.905 57.7102 126.468 57.7102ZM174.42 11.8408H195.04V57.0112H222.649V73H174.42V11.8408ZM263.144 74.3979C253.766 74.3979 246.456 71.8642 241.214 66.7967C235.972 61.7292 233.351 54.6231 233.351 45.4784V11.8408H253.97V44.8668C253.97 49.3518 254.756 52.6136 256.329 54.6522C257.96 56.6909 260.29 57.7102 263.319 57.7102C266.347 57.7102 268.648 56.6909 270.221 54.6522C271.852 52.6136 272.667 49.3518 272.667 44.8668V11.8408H292.937V45.4784C292.937 54.6231 290.316 61.7292 285.074 66.7967C279.832 71.8642 272.522 74.3979 263.144 74.3979ZM368.631 11.8408V73H351.682L328.441 45.2162V73H308.346V11.8408H325.296L348.536 39.6245V11.8408H368.631ZM397.804 27.8296H379.893V11.8408H436.334V27.8296H418.423V73H397.804V27.8296ZM498.496 57.4481V73H447.647V11.8408H497.36V27.3927H467.917V34.5571H493.778V49.41H467.917V57.4481H498.496ZM563.24 57.4481V73H512.391V11.8408H562.105V27.3927H532.661V34.5571H558.522V49.41H532.661V57.4481H563.24ZM603.346 57.6228H597.755V73H577.135V11.8408H606.579C612.229 11.8408 617.151 12.7727 621.345 14.6366C625.538 16.5005 628.771 19.1799 631.043 22.6747C633.314 26.1695 634.45 30.2468 634.45 34.9065C634.45 39.2751 633.46 43.0902 631.48 46.3521C629.499 49.6139 626.645 52.2059 622.917 54.128L635.761 73H613.743L603.346 57.6228ZM613.656 34.9065C613.656 32.6349 612.957 30.8875 611.559 29.6643C610.161 28.3829 608.064 27.7422 605.268 27.7422H597.755V42.0709H605.268C608.064 42.0709 610.161 41.4593 611.559 40.2361C612.957 38.9547 613.656 37.1782 613.656 34.9065Z" fill="#E14E54"/>
<path d="M87.3331 11.8408L96.4776 15.7076L102.311 1.91234H87.3331V11.8408ZM61.4715 73V82.9284H68.0528L70.616 76.8668L61.4715 73ZM41.2016 73L32.0571 76.8668L34.6203 82.9284H41.2016V73ZM15.34 11.8408V1.91234H0.362049L6.19547 15.7076L15.34 11.8408ZM37.532 11.8408L46.7238 8.08768L44.2023 1.91234H37.532V11.8408ZM52.1229 47.5752L42.9311 51.3284L52.0143 73.5739L61.2829 51.405L52.1229 47.5752ZM67.0632 11.8408V1.91234H60.4529L57.9031 8.01102L67.0632 11.8408ZM78.1886 7.97397L52.327 69.1332L70.616 76.8668L96.4776 15.7076L78.1886 7.97397ZM61.4715 63.0716H41.2016V82.9284H61.4715V63.0716ZM50.3461 69.1332L24.4845 7.97397L6.19547 15.7076L32.0571 76.8668L50.3461 69.1332ZM15.34 21.7692H37.532V1.91234H15.34V21.7692ZM28.3403 15.5939L42.9311 51.3284L61.3146 43.8221L46.7238 8.08768L28.3403 15.5939ZM61.2829 51.405L76.2233 15.6705L57.9031 8.01102L42.9628 43.7455L61.2829 51.405ZM67.0632 21.7692H87.3331V1.91234H67.0632V21.7692ZM108.732 70.2915L113.328 61.4909L108.732 70.2915ZM96.413 58.9334L87.9263 64.086L87.94 64.1086L87.9538 64.1312L96.413 58.9334ZM96.413 25.9948L104.872 31.1926L104.886 31.17L104.9 31.1474L96.413 25.9948ZM144.205 14.5493L148.8 5.7486L148.8 5.7486L144.205 14.5493ZM156.524 25.9948L148.037 31.1474L148.051 31.17L148.065 31.1926L156.524 25.9948ZM156.524 58.9334L164.983 64.1312L164.997 64.1086L165.01 64.086L156.524 58.9334ZM144.205 70.2915L148.8 79.0922H148.8L144.205 70.2915ZM133.371 55.8754L138.479 64.389L138.513 64.3682L138.548 64.3472L133.371 55.8754ZM138.351 50.5458L147.092 55.2529L147.117 55.207L147.141 55.1609L138.351 50.5458ZM138.351 34.3823L129.56 38.9974L129.584 39.0435L129.609 39.0894L138.351 34.3823ZM133.371 29.0527L128.087 37.4585L128.226 37.5459L128.368 37.6287L133.371 29.0527ZM119.479 29.0527L124.587 37.5663L124.621 37.5455L124.656 37.5245L119.479 29.0527ZM114.586 34.3823L123.328 39.0894L123.352 39.0435L123.377 38.9974L114.586 34.3823ZM114.586 50.5458L105.795 55.1609L105.82 55.207L105.844 55.2529L114.586 50.5458ZM119.479 55.8754L114.195 64.2812L114.334 64.3686L114.476 64.4514L119.479 55.8754ZM126.468 64.4695C121.303 64.4695 116.997 63.4071 113.328 61.4909L104.136 79.0922C110.951 82.6512 118.47 84.3264 126.468 84.3264V64.4695ZM113.328 61.4909C109.605 59.5466 106.863 56.9762 104.872 53.7356L87.9538 64.1312C91.9038 70.5596 97.3748 75.5612 104.136 79.0922L113.328 61.4909ZM104.9 53.7807C102.937 50.5483 101.886 46.8486 101.886 42.4204H82.0286C82.0286 50.224 83.9476 57.533 87.9263 64.086L104.9 53.7807ZM101.886 42.4204C101.886 37.9911 102.937 34.3417 104.872 31.1926L87.9538 20.797C83.9477 27.3168 82.0286 34.6178 82.0286 42.4204H101.886ZM104.9 31.1474C106.898 27.8559 109.635 25.2784 113.328 23.3499L104.136 5.7486C97.3446 9.29537 91.869 14.3482 87.9263 20.8421L104.9 31.1474ZM113.328 23.3499C116.997 21.4337 121.303 20.3713 126.468 20.3713V0.51442C118.47 0.51442 110.951 2.1896 104.136 5.7486L113.328 23.3499ZM126.468 20.3713C131.633 20.3713 135.939 21.4337 139.609 23.3499L148.8 5.7486C141.985 2.1896 134.467 0.51442 126.468 0.51442V20.3713ZM139.609 23.3499C143.301 25.2784 146.039 27.8559 148.037 31.1474L165.01 20.8421C161.068 14.3482 155.592 9.29537 148.8 5.7486L139.609 23.3499ZM148.065 31.1926C150 34.3417 151.051 37.9912 151.051 42.4204H170.908C170.908 34.6178 168.989 27.3168 164.983 20.797L148.065 31.1926ZM151.051 42.4204C151.051 46.8486 150 50.5483 148.037 53.7807L165.01 64.086C168.989 57.533 170.908 50.224 170.908 42.4204H151.051ZM148.065 53.7356C146.073 56.9762 143.332 59.5466 139.609 61.4909L148.8 79.0922C155.562 75.5612 161.033 70.5596 164.983 64.1312L148.065 53.7356ZM139.609 61.4909C135.939 63.4071 131.633 64.4695 126.468 64.4695V84.3264C134.467 84.3264 141.985 82.6512 148.8 79.0922L139.609 61.4909ZM126.468 67.6386C130.685 67.6386 134.777 66.6101 138.479 64.389L128.262 47.3619C127.887 47.5871 127.377 47.7818 126.468 47.7818V67.6386ZM138.548 64.3472C142.221 62.1022 145.079 58.9925 147.092 55.2529L129.609 45.8388C129.176 46.6424 128.714 47.0858 128.193 47.4037L138.548 64.3472ZM147.141 55.1609C149.231 51.1798 150.114 46.8368 150.114 42.4204H130.257C130.257 44.1781 129.916 45.2521 129.56 45.9308L147.141 55.1609ZM150.114 42.4204C150.114 38.0119 149.234 33.6525 147.092 29.6752L129.609 39.0894C129.914 39.6554 130.257 40.6547 130.257 42.4204H150.114ZM147.141 29.7673C145.128 25.9318 142.214 22.7174 138.373 20.4768L128.368 37.6287C128.721 37.8345 129.127 38.1731 129.56 38.9974L147.141 29.7673ZM138.654 20.647C134.93 18.3058 130.775 17.2021 126.468 17.2021V37.059C127.287 37.059 127.734 37.2368 128.087 37.4585L138.654 20.647ZM126.468 17.2021C122.161 17.2021 118.026 18.305 114.302 20.581L124.656 37.5245C125.125 37.2376 125.65 37.059 126.468 37.059V17.2021ZM114.371 20.5392C110.607 22.7975 107.772 26.0022 105.795 29.7672L123.377 38.9974C123.846 38.1027 124.274 37.7543 124.587 37.5663L114.371 20.5392ZM105.844 29.6753C103.703 33.6525 102.823 38.0119 102.823 42.4204H122.68C122.68 40.6547 123.023 39.6554 123.328 39.0894L105.844 29.6753ZM102.823 42.4204C102.823 46.8368 103.705 51.1798 105.795 55.1609L123.377 45.9308C123.02 45.2521 122.68 44.1781 122.68 42.4204H102.823ZM105.844 55.2529C107.821 58.924 110.6 62.0213 114.195 64.2812L124.762 47.4696C124.28 47.1667 123.797 46.7109 123.328 45.8388L105.844 55.2529ZM114.476 64.4514C118.177 66.6103 122.249 67.6386 126.468 67.6386V47.7818C125.562 47.7818 124.974 47.5869 124.481 47.2994L114.476 64.4514ZM174.42 11.8408V1.91234H164.492V11.8408H174.42ZM195.04 11.8408H204.968V1.91234H195.04V11.8408ZM195.04 57.0112H185.111V66.9397H195.04V57.0112ZM222.649 57.0112H232.577V47.0828H222.649V57.0112ZM222.649 73V82.9284H232.577V73H222.649ZM174.42 73H164.492V82.9284H174.42V73ZM174.42 21.7692H195.04V1.91234H174.42V21.7692ZM185.111 11.8408V57.0112H204.968V11.8408H185.111ZM195.04 66.9397H222.649V47.0828H195.04V66.9397ZM212.72 57.0112V73H232.577V57.0112H212.72ZM222.649 63.0716H174.42V82.9284H222.649V63.0716ZM184.349 73V11.8408H164.492V73H184.349ZM241.214 66.7967L234.313 73.9351L241.214 66.7967ZM233.351 11.8408V1.91234H223.422V11.8408H233.351ZM253.97 11.8408H263.898V1.91234H253.97V11.8408ZM256.329 54.6522L248.468 60.7166L248.521 60.786L248.576 60.8545L256.329 54.6522ZM270.221 54.6522L262.468 48.45L262.413 48.5185L262.36 48.5879L270.221 54.6522ZM272.667 11.8408V1.91234H262.739V11.8408H272.667ZM292.937 11.8408H302.866V1.91234H292.937V11.8408ZM285.074 66.7967L278.173 59.6583L285.074 66.7967ZM263.144 64.4695C255.574 64.4695 251.019 62.4658 248.114 59.6583L234.313 73.9351C241.893 81.2625 251.958 84.3264 263.144 84.3264V64.4695ZM248.114 59.6583C245.274 56.9121 243.279 52.6574 243.279 45.4784H223.422C223.422 56.5888 226.67 66.5463 234.313 73.9351L248.114 59.6583ZM243.279 45.4784V11.8408H223.422V45.4784H243.279ZM233.351 21.7692H253.97V1.91234H233.351V21.7692ZM244.042 11.8408V44.8668H263.898V11.8408H244.042ZM244.042 44.8668C244.042 50.0881 244.876 56.0607 248.468 60.7166L264.19 48.5879C264.474 48.9557 264.372 49.0168 264.212 48.3501C264.052 47.687 263.898 46.5701 263.898 44.8668H244.042ZM248.576 60.8545C252.406 65.6416 257.816 67.6386 263.319 67.6386V47.7818C262.917 47.7818 262.973 47.7158 263.279 47.8497C263.428 47.9149 263.592 48.0092 263.751 48.1313C263.908 48.2527 264.017 48.3692 264.082 48.45L248.576 60.8545ZM263.319 67.6386C268.814 67.6386 274.285 65.6381 278.082 60.7166L262.36 48.5879C262.442 48.4816 262.571 48.3406 262.753 48.1974C262.935 48.0536 263.123 47.9439 263.294 47.8682C263.641 47.7146 263.725 47.7818 263.319 47.7818V67.6386ZM277.974 60.8545C281.715 56.1779 282.596 50.1414 282.596 44.8668H262.739C262.739 46.5492 262.582 47.6371 262.424 48.2689C262.266 48.8981 262.174 48.8177 262.468 48.45L277.974 60.8545ZM282.596 44.8668V11.8408H262.739V44.8668H282.596ZM272.667 21.7692H292.937V1.91234H272.667V21.7692ZM283.009 11.8408V45.4784H302.866V11.8408H283.009ZM283.009 45.4784C283.009 52.6574 281.014 56.9121 278.173 59.6583L291.974 73.9351C299.618 66.5463 302.866 56.5888 302.866 45.4784H283.009ZM278.173 59.6583C275.269 62.4658 270.714 64.4695 263.144 64.4695V84.3264C274.33 84.3264 284.394 81.2625 291.974 73.9351L278.173 59.6583ZM368.631 11.8408H378.56V1.91234H368.631V11.8408ZM368.631 73V82.9284H378.56V73H368.631ZM351.682 73L344.066 79.3702L347.043 82.9284H351.682V73ZM328.441 45.2162L336.057 38.8461L318.513 17.8726V45.2162H328.441ZM328.441 73V82.9284H338.37V73H328.441ZM308.346 73H298.417V82.9284H308.346V73ZM308.346 11.8408V1.91234H298.417V11.8408H308.346ZM325.296 11.8408L332.911 5.47063L329.935 1.91234H325.296V11.8408ZM348.536 39.6245L340.921 45.9947L358.465 66.9682V39.6245H348.536ZM348.536 11.8408V1.91234H338.608V11.8408H348.536ZM358.703 11.8408V73H378.56V11.8408H358.703ZM368.631 63.0716H351.682V82.9284H368.631V63.0716ZM359.297 66.6298L336.057 38.8461L320.826 51.5864L344.066 79.3702L359.297 66.6298ZM318.513 45.2162V73H338.37V45.2162H318.513ZM328.441 63.0716H308.346V82.9284H328.441V63.0716ZM318.274 73V11.8408H298.417V73H318.274ZM308.346 21.7692H325.296V1.91234H308.346V21.7692ZM317.68 18.2109L340.921 45.9947L356.152 33.2544L332.911 5.47063L317.68 18.2109ZM358.465 39.6245V11.8408H338.608V39.6245H358.465ZM348.536 21.7692H368.631V1.91234H348.536V21.7692ZM397.804 27.8296H407.732V17.9011H397.804V27.8296ZM379.893 27.8296H369.964V37.758H379.893V27.8296ZM379.893 11.8408V1.91234H369.964V11.8408H379.893ZM436.334 11.8408H446.262V1.91234H436.334V11.8408ZM436.334 27.8296V37.758H446.262V27.8296H436.334ZM418.423 27.8296V17.9011H408.495V27.8296H418.423ZM418.423 73V82.9284H428.352V73H418.423ZM397.804 73H387.875V82.9284H397.804V73ZM397.804 17.9011H379.893V37.758H397.804V17.9011ZM389.821 27.8296V11.8408H369.964V27.8296H389.821ZM379.893 21.7692H436.334V1.91234H379.893V21.7692ZM426.406 11.8408V27.8296H446.262V11.8408H426.406ZM436.334 17.9011H418.423V37.758H436.334V17.9011ZM408.495 27.8296V73H428.352V27.8296H408.495ZM418.423 63.0716H397.804V82.9284H418.423V63.0716ZM407.732 73V27.8296H387.875V73H407.732ZM498.496 57.4481H508.425V47.5196H498.496V57.4481ZM498.496 73V82.9284H508.425V73H498.496ZM447.647 73H437.718V82.9284H447.647V73ZM447.647 11.8408V1.91234H437.718V11.8408H447.647ZM497.36 11.8408H507.289V1.91234H497.36V11.8408ZM497.36 27.3927V37.3211H507.289V27.3927H497.36ZM467.917 27.3927V17.4643H457.988V27.3927H467.917ZM467.917 34.5571H457.988V44.4855H467.917V34.5571ZM493.778 34.5571H503.707V24.6286H493.778V34.5571ZM493.778 49.41V59.3385H503.707V49.41H493.778ZM467.917 49.41V39.4816H457.988V49.41H467.917ZM467.917 57.4481H457.988V67.3765H467.917V57.4481ZM488.568 57.4481V73H508.425V57.4481H488.568ZM498.496 63.0716H447.647V82.9284H498.496V63.0716ZM457.575 73V11.8408H437.718V73H457.575ZM447.647 21.7692H497.36V1.91234H447.647V21.7692ZM487.432 11.8408V27.3927H507.289V11.8408H487.432ZM497.36 17.4643H467.917V37.3211H497.36V17.4643ZM457.988 27.3927V34.5571H477.845V27.3927H457.988ZM467.917 44.4855H493.778V24.6286H467.917V44.4855ZM483.85 34.5571V49.41H503.707V34.5571H483.85ZM493.778 39.4816H467.917V59.3385H493.778V39.4816ZM457.988 49.41V57.4481H477.845V49.41H457.988ZM467.917 67.3765H498.496V47.5196H467.917V67.3765ZM563.24 57.4481H573.169V47.5196H563.24V57.4481ZM563.24 73V82.9284H573.169V73H563.24ZM512.391 73H502.462V82.9284H512.391V73ZM512.391 11.8408V1.91234H502.462V11.8408H512.391ZM562.105 11.8408H572.033V1.91234H562.105V11.8408ZM562.105 27.3927V37.3211H572.033V27.3927H562.105ZM532.661 27.3927V17.4643H522.732V27.3927H532.661ZM532.661 34.5571H522.732V44.4855H532.661V34.5571ZM558.522 34.5571H568.451V24.6286H558.522V34.5571ZM558.522 49.41V59.3385H568.451V49.41H558.522ZM532.661 49.41V39.4816H522.732V49.41H532.661ZM532.661 57.4481H522.732V67.3765H532.661V57.4481ZM553.312 57.4481V73H573.169V57.4481H553.312ZM563.24 63.0716H512.391V82.9284H563.24V63.0716ZM522.319 73V11.8408H502.462V73H522.319ZM512.391 21.7692H562.105V1.91234H512.391V21.7692ZM552.176 11.8408V27.3927H572.033V11.8408H552.176ZM562.105 17.4643H532.661V37.3211H562.105V17.4643ZM522.732 27.3927V34.5571H542.589V27.3927H522.732ZM532.661 44.4855H558.522V24.6286H532.661V44.4855ZM548.594 34.5571V49.41H568.451V34.5571H548.594ZM558.522 39.4816H532.661V59.3385H558.522V39.4816ZM522.732 49.41V57.4481H542.589V49.41H522.732ZM532.661 67.3765H563.24V47.5196H532.661V67.3765ZM603.346 57.6228L611.571 52.0617L608.618 47.6944H603.346V57.6228ZM597.755 57.6228V47.6944H587.826V57.6228H597.755ZM597.755 73V82.9284H607.683V73H597.755ZM577.135 73H567.207V82.9284H577.135V73ZM577.135 11.8408V1.91234H567.207V11.8408H577.135ZM621.345 14.6366L617.312 23.7094L621.345 14.6366ZM631.043 22.6747L622.718 28.0856V28.0856L631.043 22.6747ZM631.48 46.3521L622.993 41.1994V41.1994L631.48 46.3521ZM622.917 54.128L618.367 45.3036L608.4 50.443L614.709 59.714L622.917 54.128ZM635.761 73V82.9284H654.527L643.969 67.414L635.761 73ZM613.743 73L605.518 78.5611L608.471 82.9284H613.743V73ZM611.559 29.6643L604.85 36.9831L604.935 37.0607L605.021 37.1362L611.559 29.6643ZM597.755 27.7422V17.8137H587.826V27.7422H597.755ZM597.755 42.0709H587.826V51.9994H597.755V42.0709ZM611.559 40.2361L618.097 47.708L618.183 47.6325L618.268 47.5549L611.559 40.2361ZM603.346 47.6944H597.755V67.5513H603.346V47.6944ZM587.826 57.6228V73H607.683V57.6228H587.826ZM597.755 63.0716H577.135V82.9284H597.755V63.0716ZM587.064 73V11.8408H567.207V73H587.064ZM577.135 21.7692H606.579V1.91234H577.135V21.7692ZM606.579 21.7692C611.153 21.7692 614.646 22.5242 617.312 23.7094L625.377 5.56391C619.656 3.02128 613.305 1.91234 606.579 1.91234V21.7692ZM617.312 23.7094C619.935 24.8752 621.598 26.3617 622.718 28.0856L639.367 17.2638C635.944 11.998 631.141 8.12586 625.377 5.56391L617.312 23.7094ZM622.718 28.0856C623.822 29.7842 624.522 31.9334 624.522 34.9065H644.379C644.379 28.5602 642.806 22.5549 639.367 17.2638L622.718 28.0856ZM624.522 34.9065C624.522 37.7263 623.9 39.7053 622.993 41.1994L639.966 51.5047C643.02 46.4752 644.379 40.8238 644.379 34.9065H624.522ZM622.993 41.1994C622.054 42.7455 620.636 44.1337 618.367 45.3036L627.467 62.9524C632.654 60.278 636.944 56.4823 639.966 51.5047L622.993 41.1994ZM614.709 59.714L627.553 78.586L643.969 67.414L631.125 48.542L614.709 59.714ZM635.761 63.0716H613.743V82.9284H635.761V63.0716ZM621.968 67.4389L611.571 52.0617L595.121 63.1839L605.518 78.5611L621.968 67.4389ZM623.584 34.9065C623.584 30.4659 622.122 25.7143 618.097 22.1924L605.021 37.1362C604.524 36.7015 604.138 36.1414 603.913 35.5796C603.708 35.0651 603.728 34.7789 603.728 34.9065H623.584ZM618.268 22.3455C614.335 18.7402 609.391 17.8137 605.268 17.8137V37.6706C605.94 37.6706 606.146 37.7511 606.037 37.7178C605.971 37.6978 605.813 37.6426 605.595 37.5229C605.373 37.401 605.114 37.225 604.85 36.9831L618.268 22.3455ZM605.268 17.8137H597.755V37.6706H605.268V17.8137ZM587.826 27.7422V42.0709H607.683V27.7422H587.826ZM597.755 51.9994H605.268V32.1425H597.755V51.9994ZM605.268 51.9994C609.293 51.9994 614.166 51.1476 618.097 47.708L605.021 32.7642C605.585 32.2709 606.061 32.1093 606.158 32.0809C606.2 32.0686 606.156 32.0853 606.003 32.1045C605.85 32.1236 605.609 32.1425 605.268 32.1425V51.9994ZM618.268 47.5549C622.12 44.0236 623.584 39.3631 623.584 34.9065H603.728C603.728 35.0294 603.709 34.7744 603.893 34.3076C604.092 33.8014 604.429 33.3034 604.85 32.9173L618.268 47.5549Z" fill="white"/>
</svg>
