<svg width="279" height="259" viewBox="0 0 279 259" fill="none" xmlns="http://www.w3.org/2000/svg">
<rect width="278.71" height="259" transform="translate(0.168457)" fill="white"/>
<path d="M138.875 140.551C155.727 140.551 166.653 133.99 168.505 103.427H108.967C110.911 133.903 122.393 140.551 138.875 140.551Z" fill="#A6A8AB"/>
<path d="M131.745 88.9233C136.652 84.3476 136.652 77.0092 131.745 72.5199C126.837 67.9442 118.967 67.9442 114.152 72.5199C109.8 76.6639 109.337 82.9662 112.856 87.5419L110.17 92.6356L115.633 90.1319C120.541 93.4126 127.393 92.9809 131.745 88.9233Z" fill="#A6A8AB"/>
<path d="M102.023 56.5483C98.5968 53.354 93.0411 53.354 89.6151 56.5483C86.1892 59.7427 86.1892 64.9226 89.6151 68.117C92.6708 70.9659 97.4857 71.2249 100.912 68.9803L104.801 70.7933L102.949 67.1673C105.449 63.973 105.171 59.4837 102.023 56.5483Z" fill="#A6A8AB"/>
<path d="M117.948 39.109C120.078 37.037 120.078 33.7563 117.948 31.6843C115.726 29.6987 112.208 29.6987 110.078 31.6843C108.133 33.4973 107.948 36.4326 109.522 38.4183L108.319 40.663L110.819 39.5406C112.948 41.0946 116.004 40.922 117.948 39.109Z" fill="#A6A8AB"/>
<path d="M179.246 19.8567V37.555C175.357 32.8067 171.283 29.3534 167.117 26.5044L153.135 39.5407C175.265 46.361 178.876 70.0164 178.876 93.758C178.876 121.816 173.969 149.961 138.875 149.961C103.875 149.961 98.5966 121.903 98.5966 93.758C98.5966 92.6357 98.5966 91.5134 98.5966 90.391L75.8184 111.629C77.5777 129.241 82.5778 145.126 94.6151 156.35C103.134 164.292 117.208 169.818 133.597 169.818C150.913 169.818 165.728 165.846 178.783 150.306V173.789C178.783 199.43 165.635 219.891 134.523 219.891C115.819 219.891 107.671 214.711 95.9114 204.955L80.5407 219.028C97.5781 233.359 111.004 239.143 135.264 239.143C177.487 239.143 202.395 211.948 202.395 174.739V19.8567H179.246Z" fill="#F68F1E"/>
</svg>
